# xmcd
#
# Track frame offsets: 
#        150
#        16210
#        32743
#        49432
#        62847
#        76174
#        91682
#        106964
#        120107
#        134229
#        148762
#        162091
#        176725
#        193469
#        207440
#        220329
#        234447
#        249540
#        266786
#        280710
#        297121
#        309898
#
# Disc length: 4295 seconds
#
# Revision: 0
# Processed by: cddbd v1.5.2PL0 Copyright (c) Steve Scherf et al.
# Submitted via: ExactAudioCopy v0.99pb5
#
DISCID=4410c516
DTITLE=Emmylou Harris - Anthology [Disc 2]
DYEAR=2001
DGENRE=Country
TTITLE0=If I Needed You
TTITLE1=Tennessee Rose
TTITLE2=Born To Run
TTITLE3=Another Pot O'Tea (Live)
TTITLE4=I'm Movin' On (Live)
TTITLE5=(Lost His Love) On Our Last Date (Live)
TTITLE6=So Sad (To Watch Good Love Go Bad) (Live)
TTITLE7=Maybe Tonight (Live)
TTITLE8=Drivin' Wheel
TTITLE9=In My Dreams
TTITLE10=Pledging My Love
TTITLE11=Someone Like You
TTITLE12=White Line
TTITLE13=Rhythm Guitar
TTITLE14=Timberline
TTITLE15=I Had My Heart Set On You
TTITLE16=Today I Started Loving You Again
TTITLE17=To Know Him Is To Love Him
TTITLE18=Heartbreak Hill
TTITLE19=Heaven Only Knows
TTITLE20=I Still Miss Someone
TTITLE21=Wheels Of Love
EXTD=
EXTT0=
EXTT1=
EXTT2=
EXTT3=
EXTT4=
EXTT5=
EXTT6=
EXTT7=
EXTT8=
EXTT9=
EXTT10=
EXTT11=
EXTT12=
EXTT13=
EXTT14=
EXTT15=
EXTT16=
EXTT17=
EXTT18=
EXTT19=
EXTT20=
EXTT21=
PLAYORDER=
